2.8Hzhigh3min_grf.mot
version=1
nRows=17
nColumns 19
inDegrees=yes
endheader
time	1_ground_force_vx	1_ground_force_vy	1_ground_force_vz	1_ground_force_px	1_ground_force_py	1_ground_force_pz	1_ground_torque_x	1_ground_torque_y	1_ground_torque_z	2_ground_force_vx	2_ground_force_vy	2_ground_force_vz	2_ground_force_px	2_ground_force_py	2_ground_force_pz	2_ground_torque_x	2_ground_torque_y	2_ground_torque_z
            2.502500	           -0.320661	            1.801612	            0.237806	           -0.233013	            0.005581	           -0.255695	            0.251772	           -0.138580	           -0.052563	           -0.330669	            0.735911	           -0.138017	           -0.232311	            0.006130	           -0.833667	           -0.149755	           -0.142468	            0.037258
            2.503000	            0.092333	            1.440570	            0.372803	           -0.233013	            0.005581	           -0.255695	            0.152533	           -0.018644	            0.059794	           -0.470575	            0.551423	           -0.185542	           -0.232311	            0.006130	           -0.833667	            0.000462	           -0.141387	           -0.113607
            2.503500	           -0.183180	            1.441304	            0.190062	           -0.233013	            0.005581	           -0.255695	            0.122307	            0.018997	           -0.139679	           -0.424493	            0.736577	           -0.419545	           -0.232311	            0.006130	           -0.833667	           -0.074578	           -0.160833	           -0.038242
            2.504000	           -0.458223	            1.981851	            0.238920	           -0.233013	            0.005581	           -0.255695	            0.195267	           -0.073870	           -0.076814	           -0.327552	           -0.183157	           -0.610583	           -0.232311	            0.006130	           -0.833667	           -0.150128	           -0.056855	           -0.113240
            2.504500	           -0.227834	            0.538197	            0.599015	           -0.233013	            0.005581	           -0.255695	            0.143213	           -0.046354	            0.008451	           -0.139967	           -0.183986	           -0.188310	           -0.232311	            0.006130	           -0.833667	           -0.093935	           -0.000272	           -0.018810
            2.505000	           -0.641352	            2.522023	            0.379262	           -0.233013	            0.005581	           -0.255695	            0.283146	           -0.176013	            0.008683	           -0.331416	            0.920729	           -0.325072	           -0.232311	            0.006130	           -0.833667	           -0.112472	           -0.075760	           -0.075623
            2.505500	           -0.182347	           -0.001805	            0.413158	           -0.233013	            0.005581	           -0.255695	            0.320169	           -0.156904	           -0.065681	           -0.233044	           -0.368138	           -0.282783	           -0.232311	            0.006130	           -0.833667	           -0.037135	           -0.122954	           -0.019273
            2.506000	           -0.320529	            1.080549	            0.234714	           -0.233013	            0.005581	           -0.255695	            0.233508	           -0.129421	           -0.033654	           -0.467834	           -0.185840	           -0.000458	           -0.232311	            0.006130	           -0.833667	           -0.018238	           -0.160495	           -0.075966
            2.506500	           -0.137337	            1.441312	            0.189949	           -0.233013	            0.005581	           -0.255695	            0.141511	           -0.018677	            0.031249	           -0.186838	           -0.183988	           -0.235218	           -0.232311	            0.006130	           -0.833667	            0.019366	           -0.169812	           -0.076016
            2.507000	           -0.136474	            1.079405	            0.509394	           -0.233013	            0.005581	           -0.255695	            0.090321	            0.000134	           -0.043723	           -0.281284	            0.000491	           -0.422233	           -0.232311	            0.006130	           -0.833667	           -0.131216	           -0.076164	            0.018636
            2.507500	           -0.182724	            1.440517	            0.373486	           -0.233013	            0.005581	           -0.255695	            0.227499	           -0.018595	            0.010283	           -0.562425	           -0.000189	           -0.515970	           -0.232311	            0.006130	           -0.833667	           -0.056160	           -0.056852	           -0.019029
            2.508000	           -0.228307	            1.259849	            0.464539	           -0.233013	            0.005581	           -0.255695	            0.092351	           -0.074179	            0.027230	           -0.562987	            0.183123	           -0.280672	           -0.232311	            0.006130	           -0.833667	           -0.075021	           -0.037948	           -0.037803
            2.508500	           -0.365201	            0.898308	            0.692614	           -0.233013	            0.005581	           -0.255695	            0.044741	           -0.110331	           -0.185437	           -0.188188	            0.184476	           -0.280832	           -0.232311	            0.006130	           -0.833667	           -0.112457	           -0.066710	            0.037512
            2.509000	           -0.319633	            0.538376	            0.553386	           -0.233013	            0.005581	           -0.255695	            0.220209	           -0.092519	           -0.014646	           -0.374217	           -0.184832	           -0.188210	           -0.232311	            0.006130	           -0.833667	           -0.131053	           -0.132544	           -0.075817
            2.509500	           -0.136881	            1.440526	            0.373372	           -0.233013	            0.005581	           -0.255695	            0.227277	           -0.055144	           -0.081909	           -0.281264	            0.000324	           -0.375305	           -0.232311	            0.006130	           -0.833667	           -0.055699	           -0.189056	           -0.057201
            2.510000	            0.000468	            1.801281	            0.328721	           -0.233013	            0.005581	           -0.255695	            0.210334	           -0.046003	           -0.038380	           -0.283114	            0.551597	           -0.044837	           -0.232311	            0.006130	           -0.833667	            0.000462	           -0.141387	           -0.113607
            2.510500	           -0.365608	            1.259430	            0.556592	           -0.233013	            0.005581	           -0.255695	            0.107000	           -0.009210	           -0.053584	           -0.330752	            0.736581	           -0.325729	           -0.232311	            0.006130	           -0.833667	           -0.131190	           -0.085549	           -0.000248
